<svg xmlns="http://www.w3.org/2000/svg" width="63" height="63" viewBox="0 0 63 63">
  <path id="footer3" d="M-2174.5,59a31.3,31.3,0,0,1-12.261-2.475,31.4,31.4,0,0,1-10.013-6.751,31.392,31.392,0,0,1-6.751-10.013A31.3,31.3,0,0,1-2206,27.5a31.3,31.3,0,0,1,2.475-12.261,31.392,31.392,0,0,1,6.751-10.013,31.4,31.4,0,0,1,10.013-6.751A31.3,31.3,0,0,1-2174.5-4a31.3,31.3,0,0,1,12.261,2.475,31.4,31.4,0,0,1,10.013,6.751,31.392,31.392,0,0,1,6.751,10.013A31.3,31.3,0,0,1-2143,27.5a31.3,31.3,0,0,1-2.475,12.261,31.392,31.392,0,0,1-6.751,10.013,31.4,31.4,0,0,1-10.013,6.751A31.3,31.3,0,0,1-2174.5,59Zm0-48a16.41,16.41,0,0,0-6.423,1.3,16.468,16.468,0,0,0-5.244,3.535,16.461,16.461,0,0,0-3.535,5.244A16.411,16.411,0,0,0-2191,27.5a16.411,16.411,0,0,0,1.3,6.423,16.461,16.461,0,0,0,3.535,5.244,16.468,16.468,0,0,0,5.244,3.535A16.41,16.41,0,0,0-2174.5,44a16.41,16.41,0,0,0,6.423-1.3,16.468,16.468,0,0,0,5.244-3.535,16.463,16.463,0,0,0,3.535-5.244A16.409,16.409,0,0,0-2158,27.5a16.409,16.409,0,0,0-1.3-6.423,16.463,16.463,0,0,0-3.535-5.244,16.468,16.468,0,0,0-5.244-3.535A16.41,16.41,0,0,0-2174.5,11Zm0,30A13.515,13.515,0,0,1-2188,27.5,13.515,13.515,0,0,1-2174.5,14,13.515,13.515,0,0,1-2161,27.5,13.515,13.515,0,0,1-2174.5,41Zm0-24a1.5,1.5,0,0,0-1.5,1.5v9a1.493,1.493,0,0,0,.83,1.342l6,3a1.485,1.485,0,0,0,.67.158,1.493,1.493,0,0,0,1.343-.829,1.489,1.489,0,0,0,.082-1.146,1.488,1.488,0,0,0-.752-.867L-2173,26.573V18.5A1.5,1.5,0,0,0-2174.5,17Z" transform="translate(2206 4)" fill="#fff"/>
</svg>
