<svg xmlns="http://www.w3.org/2000/svg" width="63" height="63" viewBox="0 0 63 63">
  <path id="footer2" d="M28.5,64A31.508,31.508,0,0,1,16.239,3.475,31.508,31.508,0,0,1,40.762,61.524,31.3,31.3,0,0,1,28.5,64ZM15.4,17.5a4.9,4.9,0,0,0-4.9,4.854q0,.045,0,.089V42.625A4.893,4.893,0,0,0,15.4,47.5H42.6a4.893,4.893,0,0,0,4.9-4.874V22.375A4.893,4.893,0,0,0,42.6,17.5Zm27.2,27H15.4a1.89,1.89,0,0,1-1.9-1.875V25.283L28.139,35.534a1.5,1.5,0,0,0,1.721,0L44.5,25.283V42.625A1.89,1.89,0,0,1,42.6,44.5ZM29,32.474h0L13.624,21.707A1.913,1.913,0,0,1,15.4,20.5H42.6a1.913,1.913,0,0,1,1.776,1.208L29,32.473Z" transform="translate(3 -1)" fill="#fff"/>
</svg>
