<svg xmlns="http://www.w3.org/2000/svg" width="63" height="63" viewBox="0 0 63 63">
  <path id="footer1" d="M28.5,64A31.508,31.508,0,0,1,16.239,3.475,31.508,31.508,0,0,1,40.762,61.524,31.3,31.3,0,0,1,28.5,64ZM19.942,15.783a1.6,1.6,0,0,0-.353.04l-6.863,1.584A1.576,1.576,0,0,0,11.5,18.95,30.657,30.657,0,0,0,42.119,49.573a1.577,1.577,0,0,0,1.544-1.228l1.584-6.863a1.6,1.6,0,0,0-.924-1.822l-7.392-3.168a1.583,1.583,0,0,0-1.848.455l-3.273,4A24.519,24.519,0,0,1,20.116,29.254l4-3.273a1.586,1.586,0,0,0,.455-1.848L21.4,16.741A1.594,1.594,0,0,0,19.942,15.783Z" transform="translate(3 -1)" fill="#fff"/>
</svg>
