<svg xmlns="http://www.w3.org/2000/svg" xmlns:xlink="http://www.w3.org/1999/xlink" width="160.841" height="40" viewBox="0 0 160.841 40">
  <defs>
    <clipPath id="clip-path">
      <rect id="Rectangle_36" data-name="Rectangle 36" width="160.841" height="40" fill="none"/>
    </clipPath>
  </defs>
  <g id="Group_47" data-name="Group 47" clip-path="url(#clip-path)">
    <path id="Path_164" data-name="Path 164" d="M4.873,239.354q-.027.08-.618.262a5.217,5.217,0,0,1-1.408.2,4.121,4.121,0,0,1-1.663-.281,1.81,1.81,0,0,1-.906-.813A2.868,2.868,0,0,1,0,237.389a8.033,8.033,0,0,1,.171-1.509,6.12,6.12,0,0,1,.654-1.838,3.02,3.02,0,0,1,1.186-1.157,4.063,4.063,0,0,1,1.912-.429,6.372,6.372,0,0,1,1.22.1,7.5,7.5,0,0,1,.756.177l.095,1.228a3.283,3.283,0,0,0-.665-.35,3.1,3.1,0,0,0-1.22-.209,1.647,1.647,0,0,0-1.477.705,4.591,4.591,0,0,0-.656,1.769,9.084,9.084,0,0,0-.156,1.448q0,1.478,1.056,1.543a4.739,4.739,0,0,0,1.214-.135,3.3,3.3,0,0,0,.8-.306,1.481,1.481,0,0,0,.266-.167h0Z" transform="translate(0 -199.833)" fill="#f98409"/>
    <path id="Path_165" data-name="Path 165" d="M61.26,239.132h3.52l-.156.9H59.455l1.277-7.256h1.65Z" transform="translate(-51.111 -200.112)" fill="#f98409"/>
    <path id="Path_166" data-name="Path 166" d="M121.189,232.78h4.937l-.156.9h-3.288l-.372,2.117h2.741l-.156.9h-2.74l-.437,2.429h3.333l-.156.9h-4.983Z" transform="translate(-103.084 -200.112)" fill="#f98409"/>
    <path id="Path_167" data-name="Path 167" d="M178.537,238.306l-.9,1.729H176.5l3.786-7.256h1.851l1.277,7.256h-1.65l-.327-1.729Zm2.74-1.057-.562-3.1-1.6,3.1Z" transform="translate(-151.727 -200.112)" fill="#f98409"/>
    <path id="Path_168" data-name="Path 168" d="M253.846,237.98l.916-5.184h1.186l-1.277,7.256H252.74l-1.684-5.511-.965,5.5h-1.167l1.277-7.256h2.041Z" transform="translate(-213.99 -200.112)" fill="#f98409"/>
    <path id="Path_169" data-name="Path 169" d="M319.62,232.78l-1.277,7.256h-1.65l1.277-7.256Z" transform="translate(-272.249 -200.112)" fill="#f98409"/>
    <path id="Path_170" data-name="Path 170" d="M360,237.98l.916-5.184H362.1l-1.277,7.256h-1.931l-1.684-5.511-.965,5.5h-1.167l1.277-7.256H358.4Z" transform="translate(-305.246 -200.112)" fill="#f98409"/>
    <path id="Path_171" data-name="Path 171" d="M431.034,236.75l-.452,2.615q-.015.049-.359.209a4.781,4.781,0,0,1-1.011.295,8.108,8.108,0,0,1-1.587.135,3.1,3.1,0,0,1-2.041-.6,2.23,2.23,0,0,1-.623-1.729,7.7,7.7,0,0,1,.186-1.573,6.165,6.165,0,0,1,.661-1.847,3.023,3.023,0,0,1,1.165-1.159,3.8,3.8,0,0,1,1.8-.418,11.844,11.844,0,0,1,1.266.063,7.961,7.961,0,0,1,.914.141.963.963,0,0,1,.34.108l.08,1.167h0a1.156,1.156,0,0,0-.224-.152,2.691,2.691,0,0,0-.679-.272,4.029,4.029,0,0,0-1.062-.12q-.3,0-.467.015-1.593.1-2,2.474a9.918,9.918,0,0,0-.186,1.589q0,1.319.874,1.4a3.213,3.213,0,0,0,.986-.118,1.737,1.737,0,0,0,.443-.194l.361-2.026Z" transform="translate(-365.322 -200.019)" fill="#f98409"/>
    <path id="Path_172" data-name="Path 172" d="M538.941,234.089a.5.5,0,0,0,.293.515,12.586,12.586,0,0,0,1.218.382,3.9,3.9,0,0,1,1.372.618,1.309,1.309,0,0,1,.447,1.085q0,.095-.03.376a2.79,2.79,0,0,1-.931,1.881,3.54,3.54,0,0,1-1.98.669q-.186.015-.528.015a6.05,6.05,0,0,1-1.482-.169,2.05,2.05,0,0,1-.669-.219l-.091-1.106q.011,0,.321.146a4.577,4.577,0,0,0,.753.266,4.334,4.334,0,0,0,1.013.135,2.112,2.112,0,0,0,1.3-.3,1.412,1.412,0,0,0,.477-.9,2.706,2.706,0,0,0,.03-.3.729.729,0,0,0-.39-.728,5.24,5.24,0,0,0-1.211-.346,3.4,3.4,0,0,1-1.245-.445,1.1,1.1,0,0,1-.424-.986,2.767,2.767,0,0,1,.061-.562,2.018,2.018,0,0,1,.948-1.382,3.805,3.805,0,0,1,1.807-.5,8.906,8.906,0,0,1,1.722.127,4.74,4.74,0,0,1,.8.215l.091,1.167-.274-.137a3.8,3.8,0,0,0-.737-.249,4.7,4.7,0,0,0-1.106-.112,2.849,2.849,0,0,0-1.026.154.915.915,0,0,0-.528.686" transform="translate(-461.258 -199.646)" fill="#f98409"/>
    <path id="Path_173" data-name="Path 173" d="M600.512,232.78h4.937l-.156.9h-3.288l-.372,2.117h2.74l-.156.9h-2.74l-.437,2.429h3.333l-.156.9h-4.983Z" transform="translate(-515.139 -200.112)" fill="#f98409"/>
    <path id="Path_174" data-name="Path 174" d="M663.509,236.813l1.513,3.223h-1.916l-1.543-3.922h.889q.042,0,.175.008c.089.005.165.008.228.008a1.37,1.37,0,0,0,1.543-1.136,1.519,1.519,0,0,0,.03-.342.982.982,0,0,0-.247-.707.887.887,0,0,0-.673-.258h-1.478l-1.121,6.351H659.26l1.277-7.256h3.333q2.132,0,2.132,1.494a2.786,2.786,0,0,1-.08.608,2.251,2.251,0,0,1-.507,1.066,2.3,2.3,0,0,1-.785.585,3,3,0,0,1-.749.228q-.331.048-.372.051" transform="translate(-566.74 -200.112)" fill="#f98409"/>
    <path id="Path_175" data-name="Path 175" d="M732.291,240.112l-2.147-7.332h1.714l1.258,4.234,2.353-4.234h1.026Z" transform="translate(-627.676 -200.112)" fill="#f98409"/>
    <path id="Path_176" data-name="Path 176" d="M792.959,232.78l-1.277,7.256h-1.65l1.277-7.256Z" transform="translate(-679.16 -200.112)" fill="#f98409"/>
    <path id="Path_177" data-name="Path 177" d="M834.86,239.354q-.027.08-.618.262a5.218,5.218,0,0,1-1.408.2,4.12,4.12,0,0,1-1.663-.281,1.809,1.809,0,0,1-.906-.813,2.867,2.867,0,0,1-.277-1.334,8.031,8.031,0,0,1,.171-1.509,6.12,6.12,0,0,1,.654-1.838A3.018,3.018,0,0,1,832,232.885a4.063,4.063,0,0,1,1.912-.429,6.371,6.371,0,0,1,1.22.1,7.5,7.5,0,0,1,.756.177l.095,1.228a3.289,3.289,0,0,0-.665-.35,3.1,3.1,0,0,0-1.22-.209,1.647,1.647,0,0,0-1.477.705,4.59,4.59,0,0,0-.656,1.769,9.086,9.086,0,0,0-.156,1.448q0,1.478,1.057,1.543a4.74,4.74,0,0,0,1.214-.135,3.31,3.31,0,0,0,.8-.306,1.482,1.482,0,0,0,.266-.167h0Z" transform="translate(-713.507 -199.833)" fill="#f98409"/>
    <path id="Path_178" data-name="Path 178" d="M890.719,232.78h4.937l-.156.9h-3.288l-.372,2.117h2.74l-.156.9h-2.74l-.437,2.429h3.333l-.156.9h-4.983Z" transform="translate(-764.619 -200.112)" fill="#f98409"/>
    <path id="Path_179" data-name="Path 179" d="M928.967,1.415A2.915,2.915,0,0,1,925.9,4.421c-.035,0-.032.015,0,.017a2.9,2.9,0,0,1,3.05,2.881.125.125,0,0,0,.022.066A.138.138,0,0,0,929,7.317a2.878,2.878,0,0,1,2.942-2.872c.034,0,.028-.03-.01-.033a2.9,2.9,0,0,1-2.942-3c0-.044-.022-.045-.025,0" transform="translate(-795.941 -1.188)" fill="#008bd4"/>
    <path id="Path_180" data-name="Path 180" d="M945.124,64.915a2.243,2.243,0,0,1-2.358,2.313c-.027,0-.025.012,0,.013a2.229,2.229,0,0,1,2.347,2.217c.006.069.028.068.034,0a2.214,2.214,0,0,1,2.264-2.21c.026,0,.021-.023-.008-.025a2.228,2.228,0,0,1-2.263-2.305c0-.034-.017-.035-.019,0" transform="translate(-810.443 -55.784)" fill="#008bd4"/>
    <path id="Path_181" data-name="Path 181" d="M985.834,35.588a1.509,1.509,0,0,1-1.586,1.556c-.018,0-.017.008,0,.009a1.5,1.5,0,0,1,1.579,1.491c0,.046.019.045.023,0a1.49,1.49,0,0,1,1.523-1.486c.018,0,.014-.015-.005-.017a1.5,1.5,0,0,1-1.523-1.551c0-.023-.011-.024-.013,0" transform="translate(-846.108 -30.58)" fill="#008bd4"/>
    <path id="Path_182" data-name="Path 182" d="M979.338,166.5l-.386.136-.316-.9-14.378,5.047.316.9-.386.136.329.939,15.151-5.318Z" transform="translate(-828.874 -142.472)" fill="#008bd4"/>
    <path id="Path_183" data-name="Path 183" d="M977.45,185.331l-1.151-3.262,6.109-2.144-.156-.443L967.1,184.8l.156.443,6.109-2.144,1.151,3.262Z" transform="translate(-831.379 -154.293)" fill="#008bd4"/>
    <path id="Path_184" data-name="Path 184" d="M1026.607,224.289l-1.928.677,2.6,7.242a.659.659,0,0,0,.843.4l.683-.245a.659.659,0,0,0,.4-.843Z" transform="translate(-880.876 -192.813)" fill="#008bd4"/>
    <path id="Path_185" data-name="Path 185" d="M20.876,23.225v4.54H.78v-1.34L13.1,7.743H2.38V3.2H20.839v1.34L8.521,23.225Z" transform="translate(-0.671 -2.753)" fill="#008bd4"/>
    <path id="Path_186" data-name="Path 186" d="M195.6.02V25.029h-5.024v-13.1l-6.178,7.741h-1.637l-6.178-7.741v13.1h-5.024V.02h1.637l10.383,13.286L193.959.02Z" transform="translate(-147.479 -0.017)" fill="#008bd4"/>
    <rect id="Rectangle_35" data-name="Rectangle 35" width="5.024" height="24.562" transform="translate(53.773 0.45)" fill="#008bd4"/>
    <path id="Path_187" data-name="Path 187" d="M461.944,0a12.853,12.853,0,0,1,13.1,12.728,13.067,13.067,0,0,1-26.125,0A12.788,12.788,0,0,1,461.944,0m.037,4.652a7.714,7.714,0,0,0-7.89,8.076,7.892,7.892,0,1,0,15.779,0,7.778,7.778,0,0,0-7.89-8.076" transform="translate(-385.917 -0.001)" fill="#008bd4"/>
    <path id="Path_188" data-name="Path 188" d="M653.283,7.743H645.43V3.2H666.2v4.54h-7.89V27.765h-5.024Z" transform="translate(-554.851 -2.753)" fill="#008bd4"/>
    <path id="Path_189" data-name="Path 189" d="M1036.761.02h-1.675l-3.445,7.849,2.287,6.54L1035.9,9.4l3.275,8.3h-4.1l1.444,4.131h4.407l1.377,3.2h5.4Z" transform="translate(-886.861 -0.017)" fill="#008bd4"/>
    <path id="Path_190" data-name="Path 190" d="M833.8,21.878l-5.819-7.1,2.333-2.868L828.5,6.727l-6.476,7.864V3.2H817V27.765h5.024v-12.8l10.532,12.8h3.3Z" transform="translate(-702.342 -2.753)" fill="#008bd4"/>
  </g>
</svg>
