<svg xmlns="http://www.w3.org/2000/svg" xmlns:xlink="http://www.w3.org/1999/xlink" width="296" height="296" viewBox="0 0 296 296">
  <defs>
    <filter id="Ellipse_138" x="0" y="0" width="296" height="296" filterUnits="userSpaceOnUse">
      <feOffset input="SourceAlpha"/>
      <feGaussianBlur stdDeviation="6" result="blur"/>
      <feFlood flood-opacity="0.2"/>
      <feComposite operator="in" in2="blur"/>
      <feComposite in="SourceGraphic"/>
    </filter>
    <linearGradient id="linear-gradient" x1="0.5" x2="0.5" y2="1" gradientUnits="objectBoundingBox">
      <stop offset="0" stop-color="#23abeb"/>
      <stop offset="1" stop-color="#006a9c"/>
    </linearGradient>
  </defs>
  <g id="oferta13" transform="translate(-802 -1288)">
    <g transform="matrix(1, 0, 0, 1, 802, 1288)" filter="url(#Ellipse_138)">
      <circle id="Ellipse_138-2" data-name="Ellipse 138" cx="130" cy="130" r="130" transform="translate(18 18)" fill="#fff"/>
    </g>
    <circle id="Ellipse_139" data-name="Ellipse 139" cx="90" cy="90" r="90" transform="translate(860 1346)" fill="url(#linear-gradient)"/>
    <g id="Group_60" data-name="Group 60" transform="translate(-10 -788)">
      <g id="Rectangle_42" data-name="Rectangle 42" transform="translate(913 2177)" fill="none" stroke="#fff" stroke-width="2">
        <rect width="45" height="45" stroke="none"/>
        <rect x="1" y="1" width="43" height="43" fill="none"/>
      </g>
      <g id="Rectangle_45" data-name="Rectangle 45" transform="translate(913 2226)" fill="none" stroke="#fff" stroke-width="2">
        <rect width="45" height="45" stroke="none"/>
        <rect x="1" y="1" width="43" height="43" fill="none"/>
      </g>
      <path id="Subtraction_4" data-name="Subtraction 4" d="M-2161,41h-45V-4h45V41Zm-43-43V19l41-15.273V-2Z" transform="translate(3168 2181)" fill="#fff"/>
      <g id="Rectangle_44" data-name="Rectangle 44" transform="translate(962 2226)" fill="none" stroke="#fff" stroke-width="2">
        <rect width="45" height="45" stroke="none"/>
        <rect x="1" y="1" width="43" height="43" fill="none"/>
      </g>
      <path id="Union_1" data-name="Union 1" d="M-2186.235,38V8.353h-1.235V-1.529H-2206l1.235-2.47h39.53l1.235,2.47h-18.53V8.353h-1.235V38Z" transform="translate(3037.33 1447.627) rotate(-20)"/>
      <path id="Icon_weather-stars" data-name="Icon weather-stars" d="M9.24,10.776a5.515,5.515,0,0,0,3.852-1.764,5.493,5.493,0,0,0,1.584-3.936A5.493,5.493,0,0,0,16.26,9.012a5.569,5.569,0,0,0,3.864,1.764,5.562,5.562,0,0,0-2.748.852A5.767,5.767,0,0,0,15.4,13.7a5.643,5.643,0,0,0-.72,2.8,5.521,5.521,0,0,0-1.584-3.948A5.479,5.479,0,0,0,9.24,10.776Z" transform="translate(958 2176.212)" fill="#fff"/>
      <path id="Icon_weather-stars-2" data-name="Icon weather-stars" d="M9.24,15.359a9.95,9.95,0,0,0,6.949-3.182,9.91,9.91,0,0,0,2.858-7.1,9.91,9.91,0,0,0,2.858,7.1,10.048,10.048,0,0,0,6.971,3.182A10.034,10.034,0,0,0,23.918,16.9a10.4,10.4,0,0,0-3.572,3.745,10.18,10.18,0,0,0-1.3,5.044,9.96,9.96,0,0,0-2.858-7.123A9.885,9.885,0,0,0,9.24,15.359Z" transform="translate(910.624 2189.619)" fill="#fff"/>
      <path id="Icon_weather-stars-3" data-name="Icon weather-stars" d="M9.24,9.871a4.639,4.639,0,0,0,3.24-1.484,4.621,4.621,0,0,0,1.333-3.311,4.621,4.621,0,0,0,1.333,3.311A4.685,4.685,0,0,0,18.4,9.871a4.679,4.679,0,0,0-2.312.717,4.851,4.851,0,0,0-1.666,1.746,4.747,4.747,0,0,0-.606,2.352A4.834,4.834,0,0,0,9.24,9.871Z" transform="translate(931.5 2182.831)" fill="#fff"/>
    </g>
  </g>
</svg>
