<svg xmlns="http://www.w3.org/2000/svg" xmlns:xlink="http://www.w3.org/1999/xlink" width="180" height="180" viewBox="0 0 180 180">
  <defs>
    <linearGradient id="linear-gradient" x1="0.5" x2="0.5" y2="1" gradientUnits="objectBoundingBox">
      <stop offset="0" stop-color="#23abeb"/>
      <stop offset="1" stop-color="#006a9c"/>
    </linearGradient>
  </defs>
  <g id="oferta4" transform="translate(-1210 -966)">
    <circle id="Ellipse_129" data-name="Ellipse 129" cx="90" cy="90" r="90" transform="translate(1210 966)" fill="url(#linear-gradient)"/>
    <path id="_2381853391640245577" data-name="2381853391640245577" d="M79.887,36.045V34.237a10.286,10.286,0,0,0-9.226-10.282h-.225V20.791h.225a1.13,1.13,0,0,0,1.125-1.13V14.237a1.213,1.213,0,0,0-1.125-1.13h-.225v-.452A8.061,8.061,0,0,1,72.8,7.006a.854.854,0,0,0,.45-.791v-.9A5.271,5.271,0,0,0,68.073,0a1.907,1.907,0,0,0-.788.113L51.871,2.486a1.1,1.1,0,0,0-.9,1.13V9.04a1.213,1.213,0,0,0,1.125,1.13h2.813V10.4a14.652,14.652,0,0,1-4.388,9.266l-.45.452,1.575,1.582.45-.452a17.465,17.465,0,0,0,5.063-10.96v-.226h1.575a1.541,1.541,0,0,1,1.575,1.582V13.22h-.225a1.213,1.213,0,0,0-1.125,1.13v5.424a1.13,1.13,0,0,0,1.125,1.13h.225v3.164h-.225A10.377,10.377,0,0,0,50.858,34.35v1.808A10.71,10.71,0,0,0,53,42.486l.113.113L53,42.712a10.066,10.066,0,0,0-2.138,5.311v.226H39.719l1.125-13.9h.338a1.213,1.213,0,0,0,1.125-1.13V27.8a1.13,1.13,0,0,0-1.125-1.13h-.225v-.226a19.992,19.992,0,0,0-6.751-13.672A18.954,18.954,0,0,0,19.916,7.91,19.9,19.9,0,0,0,1.35,26.441v.226H1.125A1.13,1.13,0,0,0,0,27.8V33.22a1.13,1.13,0,0,0,1.125,1.13h.338L4.051,65.537a1.112,1.112,0,0,0,1.125,1.017H22.841v1.582a1.213,1.213,0,0,0,1.125,1.13H25.2l-2.363,9.379A1.162,1.162,0,0,0,23.629,80H64.135a1.065,1.065,0,0,0,1.125-1.13v-.226l-.675-2.6H74.937A5.053,5.053,0,0,0,80,70.96V49.04a10.71,10.71,0,0,0-2.138-6.328l-.225-.113.113-.113A9.489,9.489,0,0,0,79.887,36.045ZM56.259,7.8h-3.15V4.52l3.15-.452Zm2.475,0h-.225V3.616l9-1.356a3.019,3.019,0,0,1,3.376,2.486v1.13A10.277,10.277,0,0,0,68.3,12.768v.452H62.447V11.638A3.707,3.707,0,0,0,58.734,7.8ZM61.21,18.531V15.367h8.439v3.164Zm7.089,2.26v3.164H62.447V20.791ZM61.66,50.4v3.164H37.243a1.082,1.082,0,0,0-1.013.791l-2.475,7.232H29.48L33.98,50.4Zm-10.8,5.424v5.876H36.118l1.913-5.876ZM40.169,31.977H26.329V28.814h13.84ZM3.6,26.441A17.772,17.772,0,0,1,21.153,10.056,17.4,17.4,0,0,1,33.08,14.8a17.641,17.641,0,0,1,5.626,11.638v.226H3.6Zm20.478,2.486V53.559H10.239V28.927Zm-21.828,0H8.1V32.09H2.25ZM22.729,62.712v1.582H6.188L3.713,34.237H8.1V54.689a1.213,1.213,0,0,0,1.125,1.13h16.09a1.13,1.13,0,0,0,1.125-1.13V34.237H38.819l-1.125,13.9H33.418a.984.984,0,0,0-1.013.678L27.342,61.582H24.079A1.268,1.268,0,0,0,22.729,62.712Zm2.25,4.294V63.842H63.01v3.164ZM56.934,77.74l-1.125-4.294-2.138.565.9,3.729H49.058V73.672h-2.25V77.74H40.956V73.672h-2.25V77.74H33.193l.9-3.729-1.913-.565L31.055,77.74H25.316l2.138-8.588h33.08l2.138,8.588ZM77.75,36.045a8.542,8.542,0,0,1-2.363,5.763,1.1,1.1,0,0,0,0,1.582,8.33,8.33,0,0,1,2.363,5.763V70.96a2.792,2.792,0,0,1-2.813,2.825H64.022L62.9,69.265h1.238a1.065,1.065,0,0,0,1.125-1.13V62.712a1.13,1.13,0,0,0-1.125-1.13H53.221V55.706h9.564a1.065,1.065,0,0,0,1.125-1.13V49.153a1.13,1.13,0,0,0-1.125-1.13H53.221V47.8a7.877,7.877,0,0,1,2.25-4.52,1.1,1.1,0,0,0,0-1.582,8.33,8.33,0,0,1-2.363-5.763V34.124A8.037,8.037,0,0,1,61.1,26.1h8.439a8.232,8.232,0,0,1,8.214,8.023Z" transform="translate(1260 1016)" fill="#fff"/>
  </g>
</svg>
