<svg xmlns="http://www.w3.org/2000/svg" xmlns:xlink="http://www.w3.org/1999/xlink" width="147" height="146" viewBox="0 0 147 146">
  <defs>
    <linearGradient id="linear-gradient" x1="0.5" x2="0.5" y2="1" gradientUnits="objectBoundingBox">
      <stop offset="0" stop-color="#23abeb"/>
      <stop offset="1" stop-color="#006a9c"/>
    </linearGradient>
  </defs>
  <path id="Subtraction_1" data-name="Subtraction 1" d="M73.5,146a73.523,73.523,0,0,1-51.973-21.381A72.906,72.906,0,0,1,44.89,5.737a73.764,73.764,0,0,1,80.582,15.645A72.905,72.905,0,0,1,102.11,140.263,73.472,73.472,0,0,1,73.5,146ZM53.985,33.8a3.711,3.711,0,0,0-.822.093L37.238,37.568A3.659,3.659,0,0,0,34.39,41.15,71.128,71.128,0,0,0,105.438,112.2a3.659,3.659,0,0,0,3.583-2.849L112.7,93.425a3.723,3.723,0,0,0-2.146-4.226L93.4,81.849a3.674,3.674,0,0,0-4.288,1.057l-7.594,9.279A56.751,56.751,0,0,1,54.388,65.053l9.279-7.594a3.682,3.682,0,0,0,1.057-4.288L57.374,36.022A3.7,3.7,0,0,0,53.985,33.8Z" transform="translate(0 0)" fill="url(#linear-gradient)"/>
</svg>
